<svg width="40" height="41" viewBox="0 0 40 41" fill="none" xmlns="http://www.w3.org/2000/svg">
<path fill-rule="evenodd" clip-rule="evenodd" d="M20 40.4592C31.0457 40.4592 40 31.5049 40 20.4592C40 9.41353 31.0457 0.459229 20 0.459229C8.9543 0.459229 0 9.41353 0 20.4592C0 31.5049 8.9543 40.4592 20 40.4592ZM20.0005 38.3162C29.8627 38.3162 37.8576 30.3213 37.8576 20.4591C37.8576 10.5969 29.8627 2.60194 20.0005 2.60194C10.1382 2.60194 2.14331 10.5969 2.14331 20.4591C2.14331 30.3213 10.1382 38.3162 20.0005 38.3162Z" fill="url(#paint0_linear_16_280)"/>
<path d="M21.7929 28.1797L21.0972 23.5074C21.4174 23.5074 21.7332 23.4327 22.0195 23.2892L22.1407 23.2284C22.4172 22.9513 22.6472 22.6314 22.822 22.2811L22.8364 22.2521L23.1252 22.5515C24.2749 23.7437 25.3033 25.0472 26.1952 26.4427L27.7064 28.8073L28.8343 29.8926C29.2356 30.2788 29.7266 30.5592 30.2631 30.7086C30.55 30.7885 30.8502 30.8093 31.1454 30.7699L31.3279 30.7455C31.6021 30.7088 31.8692 30.6311 32.1203 30.5149C32.4677 30.3542 32.7818 30.1299 33.0466 29.8535L33.122 29.7747C33.9058 28.9564 34.4765 27.958 34.784 26.8674L34.9354 26.3305C35.1247 25.6589 35.2457 24.9699 35.2965 24.274L35.3175 23.9866C35.3915 22.9726 35.3581 21.9536 35.218 20.9466L35.2004 20.8207C35.0748 19.9183 34.8466 19.0332 34.5202 18.1826L34.3157 17.6496L33.5527 16.6598C33.2753 16.3 32.9332 15.9952 32.5439 15.7611C30.7377 14.6748 28.5094 14.5589 26.6003 15.4519L26.2707 15.6061C25.7467 15.8512 25.2631 16.1746 24.8363 16.5651L23.88 17.4403L22.5582 18.9048C21.9666 18.4031 21.2485 18.0736 20.4824 17.9523L20.3319 17.9285C20.6084 16.4501 21.1171 15.0248 21.8389 13.7053L21.932 13.5351L22.4366 12.6555C23.162 11.391 23.6732 10.0152 23.9496 8.58388L23.958 8.29771C23.9952 7.02944 23.2834 5.85778 22.1407 5.30629C20.7666 5.03081 19.3483 5.06463 17.9888 5.40531L17.4868 5.53111C15.8769 5.93453 14.3708 6.67471 13.0679 7.70281L12.814 7.90317C12.1252 8.4467 11.5246 9.09339 11.0333 9.82036L10.9399 9.95846C10.5256 10.5715 10.222 11.2525 10.043 11.9704C9.94535 12.3618 9.88433 12.7615 9.8607 13.1642L9.83871 13.5389C9.83069 13.6755 9.83638 13.8126 9.85569 13.9481L9.89622 14.2325L10.1049 14.7206L10.4662 15.4967C10.8704 16.3649 11.4478 17.1414 12.1628 17.7785C12.6892 18.2475 13.2862 18.6306 13.9319 18.9138L14.4459 19.1392C14.9366 19.3544 15.4465 19.5229 15.9688 19.6426L17.6186 20.0206L17.4099 20.6482V21.2758L17.6186 21.764L18.036 22.2521C16.6047 22.7149 15.1178 22.9838 13.615 23.0515L9.68751 23.2284L8.58154 23.5004C7.09295 23.8663 6.0886 25.2568 6.20896 26.785C6.65551 28.8887 7.89537 30.7396 9.67096 31.9531L9.9658 32.1546C12.0855 33.5561 14.5905 34.3164 17.1316 34.3164L17.421 34.2212C20.0299 33.3625 21.7929 30.9262 21.7929 28.1797Z" fill="url(#paint1_linear_16_280)"/>
<path d="M21.7929 28.1797L21.0972 23.5074C21.4174 23.5074 21.7332 23.4327 22.0195 23.2892L22.1407 23.2284C22.4172 22.9513 22.6472 22.6314 22.822 22.2811L22.8364 22.2521L23.1252 22.5515C24.2749 23.7437 25.3033 25.0472 26.1952 26.4427L27.7064 28.8073L28.8343 29.8926C29.2356 30.2788 29.7266 30.5592 30.2631 30.7086C30.55 30.7885 30.8502 30.8093 31.1454 30.7699L31.3279 30.7455C31.6021 30.7088 31.8692 30.6311 32.1203 30.5149C32.4677 30.3542 32.7818 30.1299 33.0466 29.8535L33.122 29.7747C33.9058 28.9564 34.4765 27.958 34.784 26.8674L34.9354 26.3305C35.1247 25.6589 35.2457 24.9699 35.2965 24.274L35.3175 23.9866C35.3915 22.9726 35.3581 21.9536 35.218 20.9466L35.2004 20.8207C35.0748 19.9183 34.8466 19.0332 34.5202 18.1826L34.3157 17.6496L33.5527 16.6598C33.2753 16.3 32.9332 15.9952 32.5439 15.7611C30.7377 14.6748 28.5094 14.5589 26.6003 15.4519L26.2707 15.6061C25.7467 15.8512 25.2631 16.1746 24.8363 16.5651L23.88 17.4403L22.5582 18.9048C21.9666 18.4031 21.2485 18.0736 20.4824 17.9523L20.3319 17.9285C20.6084 16.4501 21.1171 15.0248 21.8389 13.7053L21.932 13.5351L22.4366 12.6555C23.162 11.391 23.6732 10.0152 23.9496 8.58388L23.958 8.29771C23.9952 7.02944 23.2834 5.85778 22.1407 5.30629C20.7666 5.03081 19.3483 5.06463 17.9888 5.40531L17.4868 5.53111C15.8769 5.93453 14.3708 6.67471 13.0679 7.70281L12.814 7.90317C12.1252 8.4467 11.5246 9.09339 11.0333 9.82036L10.9399 9.95846C10.5256 10.5715 10.222 11.2525 10.043 11.9704C9.94535 12.3618 9.88433 12.7615 9.8607 13.1642L9.83871 13.5389C9.83069 13.6755 9.83638 13.8126 9.85569 13.9481L9.89622 14.2325L10.1049 14.7206L10.4662 15.4967C10.8704 16.3649 11.4478 17.1414 12.1628 17.7785C12.6892 18.2475 13.2862 18.6306 13.9319 18.9138L14.4459 19.1392C14.9366 19.3544 15.4465 19.5229 15.9688 19.6426L17.6186 20.0206L17.4099 20.6482V21.2758L17.6186 21.764L18.036 22.2521C16.6047 22.7149 15.1178 22.9838 13.615 23.0515L9.68751 23.2284L8.58154 23.5004C7.09295 23.8663 6.0886 25.2568 6.20896 26.785C6.65551 28.8887 7.89537 30.7396 9.67096 31.9531L9.9658 32.1546C12.0855 33.5561 14.5905 34.3164 17.1316 34.3164L17.421 34.2212C20.0299 33.3625 21.7929 30.9262 21.7929 28.1797Z" fill="white" fill-opacity="0.87"/>
<defs>
<linearGradient id="paint0_linear_16_280" x1="20" y1="0.459229" x2="20" y2="40.4592" gradientUnits="userSpaceOnUse">
<stop offset="1" stop-color="#CDCACA"/>
</linearGradient>
<linearGradient id="paint1_linear_16_280" x1="22.0002" y1="6.38788" x2="7.85739" y2="26.3164" gradientUnits="userSpaceOnUse">
<stop stop-color="#515151" stop-opacity="0.82"/>
<stop offset="0.487725" stop-opacity="0.88"/>
</linearGradient>
</defs>
</svg>
